<svg width="1024" height="1024" viewBox="0 0 1024 1024" fill="none" xmlns="http://www.w3.org/2000/svg">
<g clip-path="url(#clip0_1_3040)">
<path d="M212.213 588.301V672.886C212.213 705.861 191.568 725.929 158.021 725.929H75.4447C41.8979 725.929 21.2537 705.861 21.2537 672.886V588.301C21.2537 555.329 41.8979 534.97 75.4447 534.97H158.021C191.568 534.97 212.213 555.329 212.213 588.301Z" fill="white" fill-opacity="0.5"/>
<path d="M525.029 194.915V243.14C429.519 249.259 343.772 330.275 341.223 441.784H182.68C149.133 441.784 128.489 421.427 128.489 388.454V194.915C128.489 161.941 149.133 141.584 182.68 141.584H470.839C504.386 141.584 525.029 161.941 525.029 194.915Z" fill="white" fill-opacity="0.5"/>
<path d="M992.393 364.942V596.33C992.393 629.302 971.746 649.661 938.202 649.661H818.924C785.377 649.661 764.733 629.302 764.733 596.33V364.942C764.733 331.969 785.377 311.898 818.924 311.898H938.202C971.746 311.898 992.393 331.969 992.393 364.942Z" fill="white" fill-opacity="0.5"/>
<path d="M537.073 587.155C608.179 587.155 665.526 525.222 665.526 446.946C665.526 371.824 607.606 309.605 537.073 309.605C465.677 309.605 408.045 372.111 408.045 447.234C408.045 525.222 465.392 587.155 537.073 587.155ZM336.364 880.186H736.919C777.921 880.186 802.294 860.69 802.294 827.143C802.294 748.295 697.35 640.773 537.073 640.773C376.218 640.773 270.991 748.295 270.991 827.143C270.991 860.69 295.649 880.186 336.364 880.186Z" fill="white"/>
</g>
<defs>
<clipPath id="clip0_1_3040">
<rect width="981.746" height="740.038" fill="white" transform="translate(21.2537 141.584)"/>
</clipPath>
</defs>
</svg>
